<svg width="48" height="37" viewBox="0 0 48 37" fill="none" xmlns="http://www.w3.org/2000/svg">
<path d="M1.92114 8.36847H46.1319" stroke="#17191C" stroke-width="2.5" stroke-linecap="round"/>
<path d="M24.0266 1V8.36846" stroke="#17191C" stroke-width="2.5" stroke-linecap="round"/>
<path d="M1.19491 26.6052L10.5945 8.36847L19.1973 26.605C20.3879 33.4318 16.7807 36 10.5945 36C4.40826 36 0.00426507 33.432 1.19491 26.6052Z" stroke="#17191C" stroke-width="2.5" stroke-linecap="round" stroke-linejoin="round"/>
<path d="M28.8265 26.6052L38.2261 8.36847L46.8289 26.605C48.0195 33.4318 44.4123 36 38.2261 36C32.0399 36 27.6359 33.432 28.8265 26.6052Z" stroke="#17191C" stroke-width="2.5" stroke-linecap="round" stroke-linejoin="round"/>
<path d="M19.1973 26.6053C20.3878 33.4319 16.7807 36.0001 10.5945 36.0001C4.40826 36.0001 0.00426507 33.4321 1.19491 26.6053H19.1973Z" stroke="#17191C" stroke-width="2.5" stroke-linejoin="round"/>
<path d="M46.8289 26.6053C48.0194 33.4319 44.4123 36.0001 38.2261 36.0001C32.0399 36.0001 27.6359 33.4321 28.8265 26.6053H46.8289Z" stroke="#17191C" stroke-width="2.5" stroke-linejoin="round"/>
</svg>
